<svg xmlns="http://www.w3.org/2000/svg" viewBox="0 0 1600 1000" role="img" aria-label="Automatización con agentes de IA y chatbots empresariales">
  <defs>
    <linearGradient id="bg" x1="0" y1="0" x2="1" y2="1">
      <stop offset="0" stop-color="#eef6ff"/>
      <stop offset="0.48" stop-color="#ffffff"/>
      <stop offset="1" stop-color="#fff2eb"/>
    </linearGradient>
    <linearGradient id="blue" x1="0" y1="0" x2="1" y2="1">
      <stop offset="0" stop-color="#173f7a"/>
      <stop offset="1" stop-color="#0f2f5d"/>
    </linearGradient>
    <linearGradient id="orange" x1="0" y1="0" x2="1" y2="1">
      <stop offset="0" stop-color="#ff905f"/>
      <stop offset="1" stop-color="#e8652e"/>
    </linearGradient>
    <filter id="shadow" x="-20%" y="-20%" width="140%" height="140%">
      <feDropShadow dx="0" dy="24" stdDeviation="28" flood-color="#0f2f5d" flood-opacity="0.16"/>
    </filter>
  </defs>
  <rect width="1600" height="1000" fill="url(#bg)"/>
  <circle cx="1270" cy="170" r="270" fill="#eaf2ff" opacity="0.9"/>
  <circle cx="1430" cy="860" r="300" fill="#ffe6d8" opacity="0.8"/>
  <circle cx="180" cy="820" r="280" fill="#eaf2ff" opacity="0.55"/>

  <g opacity="0.38" stroke="#173f7a" stroke-width="3" fill="none">
    <path d="M180 205 C370 95, 480 320, 650 210 S980 115, 1150 260 S1350 390, 1480 250"/>
    <path d="M145 670 C360 545, 505 720, 720 600 S1040 455, 1240 600 S1405 725, 1515 590"/>
    <path d="M315 130 L495 290 L690 188 L870 310 L1085 205 L1290 330 L1450 245"/>
    <path d="M305 760 L520 630 L745 730 L970 580 L1190 705 L1420 635"/>
  </g>
  <g>
    <circle cx="315" cy="130" r="12" fill="#e8652e"/>
    <circle cx="495" cy="290" r="11" fill="#173f7a"/>
    <circle cx="690" cy="188" r="14" fill="#e8652e"/>
    <circle cx="870" cy="310" r="10" fill="#173f7a"/>
    <circle cx="1085" cy="205" r="13" fill="#e8652e"/>
    <circle cx="1290" cy="330" r="12" fill="#173f7a"/>
    <circle cx="1450" cy="245" r="10" fill="#e8652e"/>
    <circle cx="305" cy="760" r="10" fill="#173f7a"/>
    <circle cx="520" cy="630" r="13" fill="#e8652e"/>
    <circle cx="745" cy="730" r="12" fill="#173f7a"/>
    <circle cx="970" cy="580" r="13" fill="#e8652e"/>
    <circle cx="1190" cy="705" r="10" fill="#173f7a"/>
    <circle cx="1420" cy="635" r="13" fill="#e8652e"/>
  </g>

  <g filter="url(#shadow)">
    <rect x="820" y="250" width="470" height="420" rx="34" fill="#ffffff"/>
    <rect x="820" y="250" width="470" height="76" rx="34" fill="url(#blue)"/>
    <circle cx="875" cy="289" r="13" fill="#24c263"/>
    <text x="908" y="298" font-family="Poppins, Arial" font-size="25" font-weight="700" fill="#ffffff">Agente IA ZentrixCo</text>
    <rect x="865" y="360" width="285" height="54" rx="18" fill="#eef5ff"/>
    <rect x="980" y="438" width="250" height="54" rx="18" fill="#e8652e" opacity="0.95"/>
    <rect x="865" y="520" width="330" height="54" rx="18" fill="#eef5ff"/>
    <rect x="865" y="600" width="190" height="30" rx="15" fill="#dfe9f7"/>
    <rect x="1070" y="600" width="118" height="30" rx="15" fill="#ffe0d0"/>
  </g>

  <g filter="url(#shadow)">
    <rect x="330" y="325" width="330" height="280" rx="32" fill="#ffffff"/>
    <circle cx="495" cy="415" r="62" fill="url(#blue)"/>
    <path d="M455 415 h80 M495 375 v80" stroke="#fff" stroke-width="12" stroke-linecap="round" opacity="0.9"/>
    <text x="393" y="520" font-family="Poppins, Arial" font-size="24" font-weight="700" fill="#0f2f5d">Captura leads</text>
    <text x="385" y="556" font-family="Open Sans, Arial" font-size="18" fill="#596779">Califica y deriva</text>
  </g>

  <g filter="url(#shadow)">
    <rect x="605" y="670" width="360" height="105" rx="28" fill="#ffffff"/>
    <circle cx="665" cy="722" r="28" fill="url(#orange)"/>
    <path d="M652 722 l10 10 18-24" stroke="#fff" stroke-width="7" fill="none" stroke-linecap="round" stroke-linejoin="round"/>
    <text x="715" y="714" font-family="Poppins, Arial" font-size="22" font-weight="700" fill="#0f2f5d">Agenda automática</text>
    <text x="715" y="746" font-family="Open Sans, Arial" font-size="17" fill="#596779">Make + Calendar + correo</text>
  </g>
</svg>
